<?xml version="1.0" encoding="utf-8"?>
<!-- Generator: Adobe Illustrator 16.0.0, SVG Export Plug-In . SVG Version: 6.00 Build 0)  -->
<!DOCTYPE svg PUBLIC "-//W3C//DTD SVG 1.0//EN" "http://www.w3.org/TR/2001/REC-SVG-20010904/DTD/svg10.dtd">
<svg version="1.0" id="trustica_logo" xmlns="http://www.w3.org/2000/svg" xmlns:xlink="http://www.w3.org/1999/xlink" x="0px"
	 y="0px" width="200px" height="28px" viewBox="0 0 200 28" enable-background="new 0 0 200 28" xml:space="preserve">
<rect x="196" y="8" width="4" height="4"/>
<polygon points="52,8 52,28 55.999,28 55.999,11.999 68,11.999 68,8 "/>
<polygon points="120.006,24 120.006,24 120.006,12 120.006,12 127.994,12 127.994,8 120.006,8 120.006,0 116,0 116,28 132,28 
	132,24 "/>
<polygon points="147.992,11.999 164,11.999 164,8 144,8 144,28 164,28 164,24 147.992,24 "/>
<path d="M168,8v3.998h20v4h-20V28h24V8H168z M188,24h-15.992v-3.998H188V24z"/>
<polygon points="84,8 80.007,8 80.007,24 80.007,24 68.007,24 68.007,15.998 64,15.998 64,28 84,28 "/>
<rect x="136" y="0" fill="#FF9800" width="4" height="4"/>
<polygon points="36.004,12 48,12 48,8.003 36.004,8.003 36.004,8 36.004,0 32,0 32,28 48,28 48,24 36.004,24 "/>
<polygon points="112,12 112,8.003 88,8 88,8.003 88,20.002 107.994,20.002 107.994,24 88,24 88,28 112,28 112,16 92.006,16 
	92.006,12 "/>
<polygon points="132,8 132,11.999 135.992,11.999 135.992,28 140,28 140,8 "/>
<rect fill="#FF9800" width="28" height="28"/>
<g>
</g>
<g>
</g>
<g>
</g>
<g>
</g>
<g>
</g>
<g>
</g>
</svg>
